@startuml
left to right direction
package "Books Managerment System" {
class 预约书籍 {
  BookNo
  PersonNo
  BookingTime
}

class 借出书籍 {
  BookNo
  PersonNo
  LendTime
  LeastTime
}
class 归还书籍 {
  BookNo
  PersonNo
  ReturnTime
  Fine
}
class 书籍 {
   BookNo
   BookName
   Arthur
   ISBN
   Publish
   price
   BookState
   BookClass
}
class 借书卡{
    CardNo
    PersonNo
    LostTag
}
class 借书者 {
   PersonNo
   Password
   Name
   PersonInfo
}
class 图书管理员{
    AdminID
    Name
    Password
 }
class 系统管理员 {
   RootId
   Name
   Password
}

借书者"1" -- "0..*"书籍:查询书籍
借书者"1" -- "0,1..2"预约书籍:预约
借书者"1" -- "0,1..2"借出书籍:借阅
借书者"1" -- "0..*"归还书籍:归还、罚金
借书者"1" -- "1" 借书卡:借书卡挂失
借书卡"*"-down-"1"  图书管理员:借书卡补办
书籍  "*"-down-"1"  图书管理员:增删改查
借出书籍 "*"-down-"1" 图书管理员:借出书籍、更新书籍
归还书籍"*"-down-"1"  图书管理员:归还书籍、更新书籍、超期罚金
预约书籍"*"-down-"1"  图书管理员:查询预约、取消预约
借书者  "*"-down-"1"  系统管理员:增删改查
图书管理员 --系统管理员:增删改查
}

@enduml